<svg width="12" height="12" viewBox="0 0 12 12" fill="none" xmlns="http://www.w3.org/2000/svg">
<path d="M6 9.03077L2.58465 5.61542L3.42771 4.74774L5.40002 6.72004V0H6.59998V6.72004L8.57229 4.74774L9.41535 5.61542L6 9.03077ZM1.44616 12C1.04206 12 0.700002 11.86 0.420001 11.58C0.14 11.3 0 10.9579 0 10.5538V8.38463H1.19998V10.5538C1.19998 10.6154 1.22562 10.6718 1.2769 10.7231C1.3282 10.7744 1.38462 10.8 1.44616 10.8H10.5538C10.6154 10.8 10.6718 10.7744 10.7231 10.7231C10.7744 10.6718 10.8 10.6154 10.8 10.5538V8.38463H12V10.5538C12 10.9579 11.86 11.3 11.58 11.58C11.3 11.86 10.9579 12 10.5538 12H1.44616Z" fill="black"/>
</svg>
