<svg width="19" height="19" viewBox="0 0 19 19" fill="none" xmlns="http://www.w3.org/2000/svg">
<circle cx="9.99076" cy="9.0507" r="9.00919" fill="white"/>
<path d="M12.1074 12.3366H7.87387C7.28885 12.3366 6.81091 11.8587 6.81091 11.2737V7.04013C6.81091 6.45511 7.28885 5.97717 7.87387 5.97717H12.1074C12.6924 5.97717 13.1703 6.45511 13.1703 7.04013V11.2737C13.1703 11.8613 12.695 12.3366 12.1074 12.3366Z" fill="#182424"/>
<path d="M9.99179 10.7904C9.55564 10.7904 9.14561 10.6206 8.83743 10.3124C8.52926 10.0042 8.3595 9.5942 8.3595 9.15805C8.3595 8.7219 8.52926 8.31187 8.83743 8.00369C9.14561 7.69552 9.55564 7.52576 9.99179 7.52576C10.4279 7.52576 10.838 7.69552 11.1462 8.00369C11.4543 8.31187 11.6241 8.7219 11.6241 9.15805C11.6241 9.5942 11.4543 10.0042 11.1462 10.3124C10.8354 10.6206 10.4279 10.7904 9.99179 10.7904ZM9.99179 7.87311C9.28403 7.87311 8.70685 8.44768 8.70685 9.15805C8.70685 9.86582 9.28142 10.443 9.99179 10.443C10.6996 10.443 11.2767 9.86843 11.2767 9.15805C11.2741 8.45029 10.6996 7.87311 9.99179 7.87311Z" fill="white"/>
<path d="M11.9426 7.47191C12.1157 7.47191 12.256 7.33159 12.256 7.1585C12.256 6.98541 12.1157 6.84509 11.9426 6.84509C11.7695 6.84509 11.6292 6.98541 11.6292 7.1585C11.6292 7.33159 11.7695 7.47191 11.9426 7.47191Z" fill="white"/>
</svg>
