<svg width="12" height="12" viewBox="0 0 12 12" fill="none" xmlns="http://www.w3.org/2000/svg">
<path d="M6.00033 0.083252L11.2795 3.23325C11.4545 3.3402 11.5906 3.48603 11.6878 3.67075C11.785 3.85547 11.8337 4.04992 11.8337 4.25409V10.5833C11.8337 10.9041 11.7194 11.1787 11.491 11.4072C11.2625 11.6357 10.9878 11.7499 10.667 11.7499H1.33366C1.01283 11.7499 0.738173 11.6357 0.509701 11.4072C0.281228 11.1787 0.166992 10.9041 0.166992 10.5833V4.25409C0.166992 4.04992 0.215603 3.85547 0.312826 3.67075C0.410048 3.48603 0.546159 3.3402 0.721159 3.23325L6.00033 0.083252ZM6.00033 6.87909L10.5503 4.16659L6.00033 1.45409L1.45033 4.16659L6.00033 6.87909ZM6.00033 8.24992L1.33366 5.44992V10.5833H10.667V5.44992L6.00033 8.24992Z" fill="#1C1B1F"/>
</svg>
