<svg width="14" height="12" viewBox="0 0 14 12" fill="none" xmlns="http://www.w3.org/2000/svg">
<path d="M9.53852 11.6411L4.92313 10.2411L1.6125 11.3514C1.38568 11.4275 1.17562 11.4057 0.982325 11.286C0.78903 11.1663 0.692383 11.0027 0.692383 10.795V2.05143C0.692383 1.91981 0.733069 1.80165 0.814441 1.69695C0.8958 1.59225 1.00995 1.51639 1.15688 1.46938L4.92313 0.359131L9.53852 1.75913L12.8492 0.648881C13.076 0.572814 13.286 0.591403 13.4793 0.704648C13.6726 0.817892 13.7693 0.976226 13.7693 1.17965V9.97448C13.7693 10.1104 13.7249 10.2296 13.6361 10.3322C13.5474 10.4347 13.427 10.5095 13.2752 10.5565L9.53852 11.6411ZM8.96161 10.4181V2.61808L5.50004 1.56936V9.36937L8.96161 10.4181ZM10.1154 10.4181L12.6154 9.70013V1.80013L10.1154 2.61808V10.4181ZM1.84621 10.2001L4.34623 9.36937V1.56936L1.84621 2.30013V10.2001Z" fill="#182424"/>
</svg>
